<svg xmlns="http://www.w3.org/2000/svg" xmlns:xlink="http://www.w3.org/1999/xlink" id="Layer_1" x="0px" y="0px" viewBox="0 0 606.1 259.9" style="enable-background:new 0 0 606.1 259.9;" xml:space="preserve"><style type="text/css">	.st0{fill:#242432;}	.st1{fill:#7E00DB;}</style><path class="st0" d="M463,218.8c-8.1,2.8-14.2-3-14.2-10.5V2h-38.4v213.8c0,32.1,26.7,48.2,55.6,39.8c3.3-1,6.4-1.9,8.8-2.6v-37.9 C471,216.3,466.1,217.7,463,218.8z"></path><path class="st0" d="M317,217.5c-42.1,12.9-74.7-15.1-74.7-56.7V152c0-33.4,22.4-53.6,48.9-53.6c21.8,0,40.1,11.2,44.8,31.4 l-46.2,15.9v36l86.2-26.3c0-59.3-37.8-94.7-84.8-94.7c-48.2,0-87.3,40.5-87.3,84.9v18.1c0,52,38.5,94.2,90.4,94.2 c17.5,0,35.7-4.6,52.1-11.2v-38.1L317,217.5z"></path><circle class="st1" cx="567.1" cy="97.7" r="37"></circle><path class="st0" d="M93.4,60.7c-21.3,0-39.9,9.9-54,25.1l-6.1-20H1.9v191.1h38.4v-94.6C40.3,119,60.2,99,87.1,99 c20.2,0,40.7,13,40.7,42.4v115.4h38.4v-127C166.1,91.8,135.8,60.7,93.4,60.7z"></path></svg>